<svg width="19" height="24" viewBox="0 0 19 24" fill="none" xmlns="http://www.w3.org/2000/svg">
<path d="M0.00510446 11.9953L0.00705752 8.95669C0.00695737 8.4088 -0.0169793 7.6921 0.0238832 7.15889C0.153632 5.28472 0.965575 3.52302 2.30613 2.20691C2.78571 1.72892 3.23935 1.41204 3.80958 1.07007C5.95782 -0.218205 8.05718 0.0257175 10.4324 0.00738947C12.7332 -0.0103377 14.6145 0.617022 16.315 2.2351C17.852 3.81316 18.5531 5.57156 18.5852 7.76697C17.1385 7.76416 15.6446 7.7873 14.2039 7.76011C13.7786 3.41796 8.01567 1.94375 5.32004 5.22563C3.7901 7.08833 3.90808 9.7139 5.83994 11.26C6.86866 12.0833 7.6793 12.0496 8.9195 11.9904C8.73847 11.9474 8.56025 11.9089 8.37947 11.8599C5.56707 11.0981 4.95533 7.12448 7.53042 5.65864C10.4096 4.01973 13.6926 6.71516 12.8378 9.90514C12.7015 10.4207 12.4517 10.8994 12.1067 11.306C12.0068 11.4246 11.4055 11.9935 11.3983 12.0156C11.2319 11.9889 9.85398 12.0224 9.62543 12.0384C11.6743 12.289 12.908 13.9439 12.6494 15.978C12.406 17.8916 10.6236 19.0846 8.7579 18.8383C7.83048 18.7095 6.99255 18.2168 6.42909 17.469C5.8179 16.6602 5.54944 15.6434 5.68184 14.6383C5.81745 13.6729 6.39874 12.6477 7.17999 12.0668C7.21239 12.0425 7.24539 12.0191 7.27909 11.9966L0.00510446 11.9953Z" fill="#0088FF"/>
<path d="M11.3984 12.0156C12.2364 12.0486 13.1919 12.0249 14.0395 12.0233L18.6082 12.0234L18.6098 15.1177C18.6108 15.7384 18.6396 16.5626 18.5783 17.1624C18.3977 18.9315 17.6263 20.4753 16.3737 21.7261C15.0863 23.0105 13.3871 23.7995 11.5752 23.9543C10.584 24.044 9.41383 23.9701 8.40539 23.9924C7.90963 24.0033 7.30205 23.9915 6.81746 23.937C5.11345 23.7513 3.52206 22.9956 2.30125 21.7924L2.27731 21.7681C0.776662 20.2382 0.0133927 18.4334 0.00402832 16.2817L2.80802 16.2789C3.22115 16.2787 3.93725 16.2575 4.32144 16.2922C4.83948 18.7172 6.37849 20.2492 8.89844 20.4676C11.8646 20.7247 14.9921 18.0842 14.2047 14.9662C13.9503 13.9582 13.3632 13.1041 12.4839 12.53C12.1296 12.2952 11.6855 12.1867 11.3984 12.0156Z" fill="#0088FF"/>
</svg>
